<svg xmlns="http://www.w3.org/2000/svg" viewBox="0 0 50 50">
  <path
    fill="gold"
    class="star"
    d="m25 0 1.246 15.533L31.471.852l-2.817 15.326L37.5 3.349l-6.687 14.075L42.678 7.322 32.576 19.187 46.65 12.5l-12.829 8.846 15.326-2.817-14.68 5.225L50 25l-15.532 1.246 14.68 5.225-15.326-2.817L46.651 37.5l-14.075-6.687 10.102 11.865-11.865-10.102L37.5 46.65l-8.846-12.829 2.817 15.326-5.225-14.68L25 50l-1.246-15.532-5.225 14.68 2.817-15.326L12.5 46.651l6.687-14.075L7.322 42.678l10.102-11.865L3.35 37.5l12.829-8.846L.852 31.471l14.68-5.225L0 25l15.533-1.246L.852 18.529l15.326 2.817L3.349 12.5l14.075 6.687L7.322 7.322l11.865 10.102L12.5 3.35l8.846 12.829L18.529.852l5.225 14.68z"
  />
	<path
    fill="#fff"
    class="text-on-star"
    d="M32 18v15h-2.549l-7.454-10.217h-.131V33H19V18h2.564l7.447 10.225h.139V18z"
  />
</svg>
