<svg t="1777556108158" class="icon" viewBox="0 0 1024 1024" version="1.1" xmlns="http://www.w3.org/2000/svg" p-id="6906" width="100" height="100"><path d="M651.90138413 472.70928725v81.52044157c0 2.96385814-1.05292409 5.92198497-3.06704893 8.56480658-2.0083919 2.64282162-4.43909909 4.4410111-7.08192228 4.54993322l-68.30442146 10.57319689c-3.27725134 10.25216038-7.9303753 21.46169903-14.06256268 33.51586982 10.04578044 14.06447312 23.15478574 30.87304818 39.64996763 50.64548294 2.0083919 3.27916335 3.06704892 6.13409781 3.06704888 8.77691944 0 3.49127621-1.05865701 6.23728858-3.06704888 8.24376848-6.76279462 8.77691942-18.9278011 21.99293796-36.3727163 39.43785474-17.54810596 17.55383889-29.0767707 26.22183465-34.4656047 26.22183464-3.27725134 0-6.24302148-1.05865701-9.3081584-3.0670489l-50.64166048-39.54104394a181.93237475 181.93237475 0 0 1-33.94582999 13.53132214c-3.27151841 31.71959233-6.55068177 54.45206277-10.15088164 68.30442306-2.0083919 7.0876536-6.447491 10.57319691-13.21601854 10.57319691h-81.83574518c-3.27725134 0-6.13218737-1.16184777-8.77500899-3.38235254-2.64282162-2.22050476-4.12570591-4.65312397-4.44100956-7.71826242l-10.14897117-67.3527777c-10.04769088-2.95812524-21.04320465-7.506148-33.09355296-13.53132216l-52.12836723 39.22765076c-2.0083919 2.0083919-4.97033961 3.06704892-8.77500743 3.06704892-3.27916335 0-6.23728858-1.16758067-9.30242706-3.49127621-42.29278924-39.12254956-63.44109509-62.48944975-63.44109507-70.52301578 0-2.64282162 1.05674655-5.49775767 3.0670489-8.24950295 2.95812524-4.11997301 8.98903387-11.83823543 18.08125693-23.36689861 9.09222307-11.41974105 16.07095459-20.29985125 20.61324444-26.95945667-6.76279462-12.90262534-11.83823543-24.84787403-15.32760119-36.16060188l-66.93046084-10.57319849c-2.95812524-0.31912608-5.49775767-1.58989751-7.50806002-4.23271756-2.0083919-2.53580995-3.06704892-5.38883399-3.06704892-8.55907368v-81.52044156c0-2.96385814 1.05865701-5.92198497 3.06704892-8.56480501 2.0083919-2.7517453 4.4410111-4.44483199 7.08383272-4.54802276l68.30251101-10.5731985c3.27916335-10.2578933 7.9303753-21.46169903 14.06447313-33.5158698-10.04769088-14.06447312-23.15478574-30.87496019-39.64996761-50.64739338-2.0083919-3.27725134-3.06704892-6.13218737-3.06704892-8.77500742 0-3.49127621 1.05674655-6.44940145 3.06704892-8.77691945 6.447491-8.77691942 18.50357379-21.99484999 36.1586914-39.22765233 17.65702964-17.23280235 29.18569439-26.00972179 34.78855326-26.00972179 3.27725134 0 6.23537813 1.05674655 9.30242547 3.06704891l50.64548138 39.64996761c10.04769088-5.28755367 21.35850826-10.04769088 33.94009865-14.0644731 3.27725134-31.71959233 6.55641467-54.23994834 10.14896963-67.777005 2.01412482-7.08383271 6.45322391-10.57319691 13.21601852-10.5731969h81.94275841c3.27916335 0 6.13409781 1.16758067 8.77691946 3.38808544 2.64282162 2.21859434 4.12570591 4.7544043 4.4390991 7.71826244l10.15088163 67.35277767c10.04769088 2.96003726 21.04320465 7.506148 33.09928585 13.53323417l52.01944357-39.22765233c2.32369554-2.0083919 5.28755367-3.06704892 8.77691944-3.06704891 3.27916335 0 6.23728858 1.16184777 9.30242706 3.48936577 42.29278924 39.12446156 63.43918463 62.49136175 63.43918463 70.5249278 0 2.32751799-1.05865701 5.07544082-3.06705049 8.24950139-3.49127621 4.65121353-9.72665434 12.68477957-18.50357221 23.78921701-8.77691942 11.09870453-15.33333412 19.97881473-19.8775344 26.43394907 6.76852753 14.05874022 11.73504468 26.11291255 15.012296 36.15869142l66.93046084 10.15088008c2.95812524 0.63442971 5.49775767 2.11158268 7.50614801 4.54228985 1.80201038 2.64091116 2.96385814 5.49775767 2.96385974 8.77500899z m-202.26662349 119.79644857c22.09612871-22.09612871 33.09355451-48.53007781 33.09355295-79.82735487 0-31.29536501-11.10061498-57.62612334-33.09355295-79.83117574-22.09612871-22.09612871-48.53007781-33.09355451-79.82735484-33.09355295-31.29536501 0-57.62612334 10.99551376-79.83117419 33.09355295-22.09612871 22.10186165-33.09355451 48.53581072-33.09355451 79.83117574 0 31.29727547 10.99551376 57.62230087 33.09355451 79.82735487 22.10186165 22.09612871 48.53581072 33.09355451 79.83117419 33.09355292 31.29727547 0 57.83250486-11.10061498 79.82735484-33.09355292z m484.25740944-336.12754514v61.74800835c0 4.65694644-21.9891171 9.30815839-65.65968941 13.53705508-3.48363285 7.9303753-7.9303753 15.53971406-13.21601852 22.84139412 15.01994093 33.19674369 22.31397607 53.49659498 22.31397451 60.79636301 0 1.15993732-0.63442971 2.21859434-1.69308671 3.06704891-35.948489 20.82726931-53.92464471 31.29727547-54.66226519 31.29727548-2.32942845 0-9.09222307-6.8774512-20.19857094-20.62088779-11.09870453-13.74343659-18.81887741-23.789217-22.8394837-29.92331484-5.91625204 0.63634174-10.25407083 0.94973491-13.21601854 0.9497349-3.061316 0-7.29403514-0.31530363-13.21601851-0.9497349-4.11997301 6.13409781-11.73504468 16.07286503-22.83374923 29.92331484-11.10634788 13.85044981-17.8691425 20.6208878-20.19666206 20.62088779-0.63634174 0-18.81887741-10.36108407-54.66417563-31.29727548-1.16184777-0.95546625-1.69308671-1.90520114-1.69308672-3.06704891 0-7.3016785 7.506148-27.59961932 22.3139745-60.79636301a127.74593301 127.74593301 0 0 1-13.21601854-22.84139412c-43.67248433-4.43909909-65.6654223-8.98712186-65.66542231-13.53705508v-61.74800835c0-4.65121353 21.99293796-9.30242706 65.66542231-13.53132375 3.80466939-8.46161582 8.24376847-16.07095459 13.21601854-22.83948209-15.01994093-33.20247662-22.31397607-53.50232787-22.3139745-60.79636304 0-1.16184777 0.63442971-2.22050476 1.69308672-3.06704889 1.16184777-0.63634174 6.23728858-3.49127621 15.33333411-8.77691945 9.09222307-5.28755367 17.76022043-10.25407083 26.0097218-15.01229602 8.24568049-4.65312397 12.68477957-7.08383271 13.21601852-7.08383271 2.32369554 0 9.09222307 6.8717183 20.19283959 20.40877493 11.10443744 13.53132372 18.82269988 23.5771026 22.83948212 29.7054675 5.92198497-0.6286968 10.2578933-0.94973491 13.21601853-0.94973489 3.06704892 0 7.29594559 0.32103652 13.21602012 0.94973489 15.01229758-20.82726931 28.44234099-37.32053918 40.49651174-49.37662198l2.64282161-0.94973331c1.16184777 0 19.35011636 10.2578933 54.66226365 30.87304816 1.16184777 0.94973491 1.69308671 1.90520114 1.69308828 3.06704892 0 7.29403514-7.506148 27.59579685-22.31397607 60.79636302 4.97225006 6.76852753 9.41326116 14.37786629 13.21602008 22.8394821 43.67248433 4.4410111 65.66160142 9.09222307 65.66159985 13.74343661z m0 451.06257618v61.74609792c0 4.65312397-21.9891171 9.30242706-65.65968941 13.53705506-3.48363285 7.9303753-7.9303753 15.53971406-13.21601852 22.83374919 15.01994093 33.20247662 22.31397607 53.50041742 22.31397451 60.79636303 0 1.16758067-0.63442971 2.22050476-1.69308671 3.06704891-35.948489 20.83300221-53.92464471 31.29727547-54.66226519 31.29727704-2.32942845 0-9.09222307-6.97490907-20.19857094-20.61515645-11.09870453-13.74725905-18.81887741-23.789217-22.8394837-29.92331328-5.91625204 0.63442971-10.25407083 0.94973491-13.21601854 0.94973334-3.061316 0-7.29403514-0.31530363-13.21601851-0.94973334-4.11997301 6.13218737-11.73504468 16.07095459-22.83374923 29.92331328-11.10634788 13.74343659-17.8691425 20.61515488-20.19666206 20.61515645-0.63634174 0-18.81887741-10.46427482-54.66417563-31.29727704-1.16184777-0.94973491-1.69308671-1.89946826-1.69308672-3.06704891 0-7.29594559 7.506148-27.59579685 22.3139745-60.79636303a127.48604645 127.48604645 0 0 1-13.21601854-22.83374919c-43.67248433-4.44674401-65.6654223-8.98903387-65.66542231-13.53705506V707.44076686c0-4.65312397 21.99293796-9.30242706 65.66542231-13.53705508 3.80466939-8.45588291 8.24376847-16.07095459 13.21601854-22.8337492-15.01994093-33.20247662-22.31397607-53.50041742-22.3139745-60.79636302 0-1.16758067 0.63442971-2.22050476 1.69308672-3.0670489 1.16184777-0.63634174 6.23728858-3.49127621 15.33333411-8.77691945 9.09222307-5.28755367 17.76022043-10.2578933 26.0097218-15.01229757 8.24568049-4.65312397 12.68477957-7.08383271 13.21601852-7.08383272 2.32369554 0 9.09222307 6.87362873 20.19283959 20.403042 11.10443744 13.53705663 18.82269988 23.57901301 22.83948212 29.71120042 5.92198497-0.63442971 10.2578933-0.94973491 13.21601853-0.94973335 3.06704892 0 7.29594559 0.31530363 13.21602012 0.94973335 15.01229758-20.82535729 28.44234099-37.32053918 40.49651174-49.37662196l2.64282161-0.94973334c1.16184777 0 19.35011636 10.25407083 54.66226365 30.87495863 1.16184777 0.94973491 1.69308671 1.89946826 1.69308828 3.0670489 0 7.29403514-7.506148 27.59579685-22.31397607 60.79636303 4.97225006 6.76279462 9.41326116 14.37786629 13.21602008 22.83375077 43.67248433 4.44292157 65.66160142 8.98712186 65.66159985 13.74725749zM821.07445306 287.14996009c0-15.22632089-5.60285887-28.44234099-16.70729476-39.64996918-11.09870453-11.10634788-24.41982427-16.70729474-39.64996918-16.70729475-15.22441044 0-28.44042898 5.60094685-39.64996761 16.70729475-11.09870453 11.20762818-16.70156182 24.42364674-16.70156182 39.64996918 0 15.53971406 5.49966811 28.86465626 16.49518188 39.75315837 10.99169131 10.99551376 24.31663349 16.49518187 39.75315837 16.49518189 15.43652487 0 28.86465626-5.49775767 39.75315836-16.49518189 10.99742419-10.78531136 16.70729474-24.21535476 16.70729476-39.75315837z m0 451.1638565c0-15.22632089-5.60285887-28.44234099-16.70729476-39.64996918-11.09870453-11.09870453-24.41982427-16.70729474-39.64996918-16.70729473-15.22441044 0-28.44042898 5.6085918-39.64996761 16.70729473-11.09870453 11.09870453-16.70156182 24.42364674-16.70156182 39.64996918 0 15.54544697 5.49966811 28.86465626 16.49518188 39.7531584 10.99169131 10.89232299 24.31663349 16.49518187 39.75315837 16.49518031 15.43652487 0 28.86465626-5.49966811 39.75315836-16.49518031 10.99742419-10.8885021 16.70729474-24.31663349 16.70729476-39.7531584z m0 0" fill="#000000" p-id="6907"></path></svg>
