<svg width="321" height="214" viewBox="0 0 321 214" xmlns="http://www.w3.org/2000/svg">
<title>T.E.G.旗帜</title>
<path d="M0 0h321v214H0z" fill="#003F87"/>
<path d="M0 0h160v107H0z" fill="#DE2910"/>
<path d="m79.825 3 7.429 32.889 28.51-18.003-18.003 28.51 32.889 7.429-32.889 7.429 18.003 28.51-28.51-18.003-7.429 32.889-7.429-32.889-28.51 18.003 18.003-28.51-32.889-7.429 32.889-7.429-18.003-28.51 28.51 18.003 7.429-32.889z" fill="#000"/>
<polygon points="80.352,38 67,51.352 80.352,64.704 93.703,51.352" fill="#CDCDCD"/>
<circle cx="31.9625" cy="53.7978" r="2.9625" fill="#555"/>
<circle cx="127.633" cy="53.7978" r="2.9625" fill="#555"/>
<circle cx="79.7978" cy="5.9625" r="2.9625" fill="#555"/>
<circle cx="79.7978" cy="101.633" r="2.9625" fill="#555"/>
</svg>